#!OML:ASF X:\für Bonn\!DataBase\2005_08_10_Bjorn_Final\c3d\bjorn.ASF
:FULLY-SPECIFIED
:DEGREES
201
root 1.93529 19.0211 2.27487 -187.117 -12.3226 -207.495
lowerback 13.7616 -1.94773 10.2387
upperback 17.5588 -5.65618 -2.20308
thorax 10.9402 -2.95983 -8.16499
lowerneck 3.69348 11.4267 2.24704
upperneck 13.9385 16.8528 -20.4358
head 5.55011 7.0185 -6.08488
rclavicle 1.43125e-014 6.36111e-015
rhumerus -51.3125 -34.3753 -39.2994
rradius 37.5731
rwrist -23.36
rhand -16.9471 9.55147
rfingers 7.12502
rthumb 9.2864 -20.224
lclavicle 1.43125e-014 6.36111e-015
lhumerus -22.7677 15.1141 59.5826
lradius 75.0013
lwrist -18.0815
lhand -57.7758 -31.8618
lfingers 7.12502
lthumb -30.0319 -4.28033
rfemur -0.267466 -0.746749 -12.5893
rtibia 34.6036
rfoot -13.3322 20.2205
rtoes -5.62822
lfemur -27.7477 0.545084 17.1281
ltibia 16.1376
lfoot 10.0777 16.7285
ltoes -31.6309
202
root 1.89819 19.0018 2.22531 -186.407 -12.7706 -207.732
lowerback 12.146 -2.34775 10.6844
upperback 17.0569 -6.0602 -2.18699
thorax 11.1061 -3.00302 -8.44854
lowerneck 4.39297 11.4605 1.62471
upperneck 13.9151 16.7337 -20.0801
head 5.3255 6.9695 -5.93065
rclavicle 1.11319e-014 -1.90833e-014
rhumerus -53.104 -34.0992 -37.4192
rradius 37.718
rwrist -26.1918
rhand -16.3232 9.02131
rfingers 7.12502
rthumb 9.8884 -20.7265
lclavicle 1.11319e-014 -1.90833e-014
lhumerus -22.6871 15.2465 59.2883
lradius 73.5427
lwrist -18.3639
lhand -57.2268 -31.7964
lfingers 7.12502
lthumb -29.508 -4.12121
rfemur -0.570705 -0.713419 -13.1103
rtibia 34.8767
rfoot -14.0098 21.0157
rtoes -9.16951
lfemur -28.3025 0.841184 16.3271
ltibia 16.0183
lfoot 7.79172 17.8785
ltoes -34.4027
203
root 1.8695 18.9875 2.18554 -185.788 -13.2063 -208.012
lowerback 10.7214 -2.68083 10.9993
upperback 16.63 -6.41979 -2.21206
thorax 11.277 -3.05196 -8.71323
lowerneck 4.86914 11.4715 1.42239
upperneck 13.7873 16.6414 -19.8867
head 5.15942 6.95322 -5.87548
rclavicle 8.5875e-014 6.67916e-014
rhumerus -54.8893 -33.7382 -35.7774
rradius 38.0371
rwrist -29.1909
rhand -15.5578 8.49962
rfingers 7.12502
rthumb 10.6267 -21.2117
lclavicle 8.5875e-014 6.67916e-014
lhumerus -22.3678 15.3319 58.852
lradius 72.1172
lwrist -18.9573
lhand -56.6853 -31.4242
lfingers 7.12502
lthumb -28.991 -3.65886
rfemur -0.739256 -0.426152 -13.585
rtibia 35.0364
rfoot -14.6179 21.602
rtoes -11.7445
lfemur -28.8979 1.15894 15.3777
ltibia 16.7157
lfoot 4.82601 19.0092
ltoes -35.1596
204
root 1.844 18.9741 2.1509 -185.395 -13.5656 -208.175
lowerback 9.56738 -2.96764 11.2497
upperback 16.2914 -6.7613 -2.19205
thorax 11.4234 -3.12474 -8.88767
lowerneck 5.09471 11.4872 1.52544
upperneck 13.6563 16.6242 -19.8186
head 5.07971 6.9761 -5.88476
rclavicle 2.70347e-014 2.54444e-014
rhumerus -56.4995 -33.2159 -34.3942
rradius 38.4382
rwrist -32.1446
rhand -14.8907 8.00076
rfingers 7.12502
rthumb 11.2701 -21.6765
lclavicle 2.70347e-014 2.54444e-014
lhumerus -21.8922 15.5014 58.3318
lradius 70.7176
lwrist -20.0289
lhand -56.1093 -30.6467
lfingers 7.12502
lthumb -28.4407 -2.78809
rfemur -0.740738 -0.0699145 -13.7958
rtibia 35.1037
rfoot -15.8177 21.5483
rtoes -16.3834
lfemur -29.1927 1.47672 14.5062
ltibia 17.6983
lfoot 2.0787 19.4285
ltoes -33.8681
205
root 1.82186 18.9661 2.12315 -185.098 -13.8905 -208.342
lowerback 8.63286 -3.24354 11.3414
upperback 15.9813 -7.10326 -2.13185
thorax 11.4925 -3.237 -8.91645
lowerneck 5.18028 11.5189 1.76226
upperneck 13.4542 16.6618 -19.8679
head 5.02926 7.02814 -5.93883
rclavicle 4.29375e-014 1.20861e-013
rhumerus -57.897 -32.4786 -33.2652
rradius 38.9495
rwrist -34.8529
rhand -14.6378 7.30524
rfingers 7.12502
rthumb 11.5141 -22.3585
lclavicle 4.29375e-014 1.20861e-013
lhumerus -21.3024 15.7403 57.7714
lradius 69.3051
lwrist -21.374
lhand -55.7206 -31.0978
lfingers 7.12502
lthumb -28.0692 -3.17781
rfemur -0.656389 0.438131 -13.9292
rtibia 35.1092
rfoot -16.6426 21.3064
rtoes -18.9061
lfemur -29.2358 1.80204 13.5862
ltibia 18.725
lfoot 0.508729 18.927
ltoes -32.6282
206
root 1.80127 18.9589 2.10109 -184.897 -14.1833 -208.494
lowerback 7.85669 -3.50355 11.3199
upperback 15.7474 -7.45523 -2.03395
thorax 11.5784 -3.38159 -8.83935
lowerneck 5.05311 11.562 2.10731
upperneck 13.2195 16.757 -20.0386
head 5.03169 7.101 -6.03002
rclavicle -3.18055e-014 -6.04305e-014
rhumerus -59.0825 -31.826 -32.2321
rradius 39.3471
rwrist -36.8992
rhand -14.738 6.60669
rfingers 7.12502
rthumb 11.4174 -23.0624
lclavicle -3.18055e-014 -6.04305e-014
lhumerus -20.5387 16.018 57.1823
lradius 67.9066
lwrist -22.804
lhand -55.4471 -31.4993
lfingers 7.12502
lthumb -27.8078 -3.53674
rfemur -0.532302 1.00485 -13.9892
rtibia 35.1446
rfoot -16.8343 21.0546
rtoes -18.4194
lfemur -29.0483 2.13287 12.673
ltibia 19.7384
lfoot 0.723419 17.9827
ltoes -27.256
207
root 1.7797 18.9466 2.0866 -184.803 -14.4143 -208.627
lowerback 7.26447 -3.71603 11.2795
upperback 15.5986 -7.76246 -1.93811
thorax 11.6804 -3.51621 -8.75137
lowerneck 4.67117 11.5826 2.5374
upperneck 13.0178 16.8592 -20.207
head 5.09653 7.16837 -6.11504
rclavicle 5.24792e-014 -3.49861e-014
rhumerus -60.2836 -31.3078 -31.2504
rradius 39.636
rwrist -38.3746
rhand -14.9707 6.19164
rfingers 7.12502
rthumb 11.193 -23.4898
lclavicle 5.24792e-014 -3.49861e-014
lhumerus -19.5964 16.1682 56.5758
lradius 66.6395
lwrist -24.1054
lhand -55.2283 -31.8601
lfingers 7.12502
lthumb -27.5985 -3.86385
rfemur -0.407646 1.64138 -13.9814
rtibia 35.2451
rfoot -16.6508 20.7474
rtoes -15.9813
lfemur -28.6668 2.46648 11.7362
ltibia 20.7931
lfoot 2.24788 16.5938
ltoes -20.6396
